<?xml version="1.0" encoding="UTF-8"?>
<svg width="460px" height="350px" viewBox="0 0 460 350" version="1.1" xmlns="http://www.w3.org/2000/svg" xmlns:xlink="http://www.w3.org/1999/xlink">
    <!-- Generator: Sketch 49 (51002) - http://www.bohemiancoding.com/sketch -->
    <title>Group 3</title>
    <desc>Created with Sketch.</desc>
    <defs>
        <linearGradient x1="0%" y1="0%" x2="100%" y2="100%" id="linearGradient-1">
            <stop stop-color="#009FC9" offset="0%"></stop>
            <stop stop-color="#18007F" offset="100%"></stop>
        </linearGradient>
    </defs>
    <g id="Desktop" stroke="none" stroke-width="1" fill="none" fill-rule="evenodd">
        <g id="Desktop-09-Company-Blog" transform="translate(-118.000000, -717.000000)">
            <g id="Group-3" transform="translate(118.000000, 717.000000)">
                <rect id="Rectangle-2" fill="url(#linearGradient-1)" x="0" y="0" width="460" height="350"></rect>
                <g id="Group-2" transform="translate(208.000000, 156.000000)" fill="#FFFFFF">
                    <path d="M26.8028575,7.46264506 C26.6073138,7.57504639 26.2878167,7.57628156 26.0926822,7.46470369 L22.2509443,5.27061338 C22.0554007,5.15862378 21.7346763,5.15862378 21.5391326,5.27061338 L17.6990312,7.46470369 C17.5038966,7.57628156 17.1831722,7.57628156 16.9880376,7.46470369 L13.1462998,5.27061338 C12.9511653,5.15862378 12.9511653,4.97622896 13.1467089,4.86423936 L21.52686,0.0836834035 C21.7224037,-0.0278944678 22.042719,-0.0278944678 22.2382626,0.0836834035 L30.5942776,4.85806346 C30.7894122,4.96964133 30.7902304,5.15409479 30.5950958,5.26649611 L26.8028575,7.46264506 Z" id="logo-upper-copy"></path>
                    <path d="M0,13.3298952 C0,13.0380597 0.206514085,12.9168602 0.458978873,13.0603859 L21.0887324,24.8156698 C21.3411972,24.9602587 21.7547535,24.9602587 22.0077465,24.8156698 L42.6380282,13.0609174 C42.890493,12.9168602 43.0975352,13.0380597 43.0975352,13.3309583 L43.0975352,25.695429 C43.0975352,25.9877961 42.8910211,26.3450156 42.6385563,26.4896044 L22.0230634,38.2778461 C21.7705986,38.4224349 21.3575704,38.4224349 21.1051056,38.2783777 L0.477464789,26.4986412 C0.225,26.354584 0.0174295775,25.9973645 0.0174295775,25.7044658 L0,13.3298952 Z" id="logo-lower-copy"></path>
                </g>
            </g>
        </g>
    </g>
</svg>