<?xml version="1.0" encoding="UTF-8"?>
<svg width="387px" height="220px" viewBox="0 0 387 220" version="1.1" xmlns="http://www.w3.org/2000/svg" xmlns:xlink="http://www.w3.org/1999/xlink">
    <!-- Generator: Sketch 48.2 (47327) - http://www.bohemiancoding.com/sketch -->
    <title>card-valence-digital</title>
    <desc>Created with Sketch.</desc>
    <defs>
        <linearGradient x1="3.2027264%" y1="3.2027264%" x2="100%" y2="100%" id="linearGradient-1">
            <stop stop-color="#FFFFFF" stop-opacity="0" offset="0%"></stop>
            <stop stop-color="#FFFFFF" offset="100%"></stop>
        </linearGradient>
        <linearGradient x1="50%" y1="50%" x2="100%" y2="100%" id="linearGradient-2">
            <stop stop-color="#FFFFFF" stop-opacity="0" offset="0%"></stop>
            <stop stop-color="#FFFFFF" offset="100%"></stop>
        </linearGradient>
    </defs>
    <g id="Desktop-01-Home" stroke="none" stroke-width="1" fill="none" fill-rule="evenodd" transform="translate(-528.000000, -1324.000000)" stroke-linecap="round">
        <g id="card-valence-digital" transform="translate(524.000000, 1323.000000)">
            <path d="M218.5,197.5 L231.652946,197.5" id="Line" stroke="#FFFFFF" opacity="0.292855525" stroke-linejoin="round"></path>
            <path d="M246.5,207.5 L259.652946,207.5" id="Line-Copy-3" stroke="#FFFFFF" opacity="0.292855525" stroke-linejoin="round"></path>
            <path d="M239.5,197.5 L246.170832,197.5" id="Line-Copy" stroke="#FFFFFF" opacity="0.292855525" stroke-linejoin="round"></path>
            <path d="M218.5,207.5 L239.006097,207.5" id="Line-Copy-2" stroke="#FFFFFF" opacity="0.292855525" stroke-linejoin="round"></path>
            <path d="M75.5,17.5 L88.6529464,17.5" id="Line" stroke="#FFFFFF" opacity="0.171705163" stroke-linejoin="round"></path>
            <path d="M103.5,27.5 L116.652946,27.5" id="Line-Copy-3" stroke="#FFFFFF" opacity="0.171705163" stroke-linejoin="round"></path>
            <path d="M96.5,17.5 L103.170832,17.5" id="Line-Copy" stroke="#FFFFFF" opacity="0.171705163" stroke-linejoin="round"></path>
            <path d="M75.5,27.5 L96.0060967,27.5" id="Line-Copy-2" stroke="#FFFFFF" opacity="0.171705163" stroke-linejoin="round"></path>
            <polygon id="Polygon-Copy-3" stroke="#FFFFFF" stroke-width="2" stroke-linejoin="round" points="196.390728 41 252.781457 73.75 252.781457 139.25 196.390728 172 140 139.25 140 73.75"></polygon>
            <path d="M202.099765,89.6741025 L192.584704,124.193447" id="Line" stroke="#FFFFFF" stroke-width="3"></path>
            <polyline id="Path-3" stroke="#FFFFFF" stroke-width="3" stroke-linejoin="round" points="182.118137 96.3861973 166.89404 106.239835 182.11511 115.563611"></polyline>
            <polyline id="Path-3-Copy" stroke="#FFFFFF" stroke-width="3" stroke-linejoin="round" transform="translate(218.275369, 105.974904) scale(-1, 1) translate(-218.275369, -105.974904) " points="225.887417 96.3861973 210.66332 106.239835 225.88439 115.563611"></polyline>
            <path d="M243,0 L341,57" id="Line-2-Copy-54" stroke="url(#linearGradient-1)" opacity="0.4"></path>
            <path d="M253,79 L390,158" id="Line-2-Copy-56" stroke="url(#linearGradient-1)" opacity="0.4"></path>
            <path d="M0,57 L141,139" id="Line-2-Copy-56" stroke="url(#linearGradient-1)" opacity="0.4"></path>
            <path d="M133,3 L198,41" id="Line-2-Copy-53" stroke="url(#linearGradient-1)" opacity="0.4"></path>
            <path d="M67,31 L141,74" id="Line-2-Copy-51" stroke="url(#linearGradient-1)" opacity="0.4"></path>
            <path d="M254,140 L328,183" id="Line-2-Copy-51" stroke="url(#linearGradient-1)" opacity="0.4" transform="translate(291.000000, 161.500000) rotate(-180.000000) translate(-291.000000, -161.500000) "></path>
            <path d="M20,141 L140,212" id="Line-2-Copy-51" stroke="url(#linearGradient-1)" opacity="0.4" transform="translate(80.000000, 176.500000) scale(1, -1) translate(-80.000000, -176.500000) "></path>
            <path d="M254,10 L362,74" id="Line-2-Copy-51" stroke="url(#linearGradient-2)" opacity="0.4" transform="translate(308.000000, 42.000000) scale(1, -1) rotate(-180.000000) translate(-308.000000, -42.000000) "></path>
            <path d="M139,224.533811 L139,121" id="Line-2-Copy-58" stroke="url(#linearGradient-1)" opacity="0.2" transform="translate(139.500000, 172.766905) scale(1, -1) translate(-139.500000, -172.766905) "></path>
            <path d="M357,108.533811 L357,5" id="Line-2-Copy-59" stroke="url(#linearGradient-1)" opacity="0.2"></path>
            <path d="M254,10.9661891 L254,114.5" id="Line-2-Copy-57" stroke="url(#linearGradient-1)" opacity="0.2"></path>
            <path d="M65,163.557567 L65,32" id="Line-2-Copy-49" stroke="url(#linearGradient-1)" opacity="0.2" transform="translate(65.500000, 98.000000) scale(1, -1) translate(-65.500000, -98.000000) "></path>
            <path d="M141,0.498762384 L141,101.5" id="Line-2-Copy-55" stroke="url(#linearGradient-1)" opacity="0.2"></path>
        </g>
    </g>
</svg>