<?xml version="1.0" encoding="UTF-8"?>
<svg width="350px" height="224px" viewBox="0 0 350 224" version="1.1" xmlns="http://www.w3.org/2000/svg" xmlns:xlink="http://www.w3.org/1999/xlink">
    <!-- Generator: Sketch 48.2 (47327) - http://www.bohemiancoding.com/sketch -->
    <title>valence-digital</title>
    <desc>Created with Sketch.</desc>
    <defs>
        <linearGradient x1="3.2027264%" y1="3.2027264%" x2="100%" y2="100%" id="linearGradient-1">
            <stop stop-color="#FFFFFF" stop-opacity="0" offset="0%"></stop>
            <stop stop-color="#FFFFFF" offset="100%"></stop>
        </linearGradient>
        <linearGradient x1="50%" y1="50%" x2="100%" y2="100%" id="linearGradient-2">
            <stop stop-color="#FFFFFF" stop-opacity="0" offset="0%"></stop>
            <stop stop-color="#FFFFFF" offset="100%"></stop>
        </linearGradient>
    </defs>
    <g id="Desktop-01-Home" stroke="none" stroke-width="1" fill="none" fill-rule="evenodd" transform="translate(-548.000000, -1324.000000)" stroke-linecap="round">
        <g id="valence-digital" transform="translate(544.000000, 1323.000000)">
            <g id="details-motion-2" opacity="0.121999547" transform="translate(198.000000, 196.000000)" stroke="#FFFFFF" stroke-linejoin="round">
                <path d="M0.5,1.5 L13.6529464,1.5" id="Line"></path>
                <path d="M28.5,11.5 L41.6529464,11.5" id="Line-Copy-3"></path>
                <path d="M21.5,1.5 L28.170832,1.5" id="Line-Copy"></path>
                <path d="M0.5,11.5 L21.0060967,11.5" id="Line-Copy-2"></path>
            </g>
            <g id="details-motion-2" opacity="0.121999547" transform="translate(55.000000, 16.000000)" stroke="#FFFFFF" stroke-linejoin="round">
                <path d="M0.5,1.5 L13.6529464,1.5" id="Line"></path>
                <path d="M28.5,11.5 L41.6529464,11.5" id="Line-Copy-3"></path>
                <path d="M21.5,1.5 L28.170832,1.5" id="Line-Copy"></path>
                <path d="M0.5,11.5 L21.0060967,11.5" id="Line-Copy-2"></path>
            </g>
            <g id="Group-7" transform="translate(121.000000, 41.000000)" stroke="#FFFFFF">
                <polygon id="Polygon-Copy-3" stroke-width="2" stroke-linejoin="round" points="56.3907285 0 112.781457 32.75 112.781457 98.25 56.3907285 131 3.55271368e-14 98.25 0 32.75"></polygon>
                <g id="Group-10" transform="translate(26.894040, 47.715232)" stroke-width="3">
                    <path d="M35.2057253,0.958870687 L25.6906644,35.4782154" id="Line"></path>
                    <polyline id="Path-3" stroke-linejoin="round" points="15.2240974 7.67096549 0 17.5246032 15.2210699 26.8483792"></polyline>
                    <polyline id="Path-3-Copy" stroke-linejoin="round" transform="translate(51.381329, 17.259672) scale(-1, 1) translate(-51.381329, -17.259672) " points="58.9933775 7.67096549 43.7692801 17.5246032 58.9903499 26.8483792"></polyline>
                </g>
            </g>
            <path d="M223,0 L321,57" id="Line-2-Copy-54" stroke="url(#linearGradient-1)" opacity="0.4"></path>
            <g id="Group-18" transform="translate(234.000000, 79.000000)" opacity="0.4" stroke="url(#linearGradient-1)">
                <path d="M0,0 L119,69" id="Line-2-Copy-56"></path>
            </g>
            <g id="Group-18-Copy" transform="translate(2.000000, 70.000000)" opacity="0.4" stroke="url(#linearGradient-1)">
                <path d="M0,0 L119,69" id="Line-2-Copy-56"></path>
            </g>
            <g id="Group-17" transform="translate(113.000000, 3.000000)" opacity="0.4" stroke="url(#linearGradient-1)">
                <path d="M0,0 L65,38" id="Line-2-Copy-53"></path>
            </g>
            <g id="Group-9-Copy-3" transform="translate(47.000000, 31.000000)" opacity="0.4" stroke="url(#linearGradient-1)">
                <path d="M0,0 L74,43" id="Line-2-Copy-51"></path>
            </g>
            <g id="Group-9-Copy-4" transform="translate(271.000000, 161.500000) rotate(-180.000000) translate(-271.000000, -161.500000) translate(234.000000, 140.000000)" opacity="0.4" stroke="url(#linearGradient-1)">
                <path d="M0,0 L74,43" id="Line-2-Copy-51"></path>
            </g>
            <g id="Group-19" transform="translate(0.000000, 141.000000)" opacity="0.4" stroke="url(#linearGradient-1)">
                <path d="M0,0 L120,71" id="Line-2-Copy-51" transform="translate(60.000000, 35.500000) scale(1, -1) translate(-60.000000, -35.500000) "></path>
            </g>
            <path d="M234,10 L342,74" id="Line-2-Copy-51" stroke="url(#linearGradient-2)" opacity="0.4" transform="translate(288.000000, 42.000000) scale(1, -1) rotate(-180.000000) translate(-288.000000, -42.000000) "></path>
            <path d="M84,224.533811 L84,121" id="Line-2-Copy-58" stroke="url(#linearGradient-1)" opacity="0.2"></path>
            <path d="M337,108.533811 L337,5" id="Line-2-Copy-59" stroke="url(#linearGradient-1)" opacity="0.2"></path>
            <path d="M234,10.9661891 L234,114.5" id="Line-2-Copy-57" stroke="url(#linearGradient-1)" opacity="0.2"></path>
            <path d="M30,38.9661891 L30,142.5" id="Line-2-Copy-49" stroke="url(#linearGradient-1)" opacity="0.2"></path>
            <path d="M121,0.498762384 L121,101.5" id="Line-2-Copy-55" stroke="url(#linearGradient-1)" opacity="0.2"></path>
        </g>
    </g>
</svg>