<?xml version="1.0" encoding="UTF-8"?>
<svg width="590px" height="200px" viewBox="0 0 590 200" version="1.1" xmlns="http://www.w3.org/2000/svg" xmlns:xlink="http://www.w3.org/1999/xlink">
    <!-- Generator: Sketch 49 (51002) - http://www.bohemiancoding.com/sketch -->
    <title>diagram-401k</title>
    <desc>Created with Sketch.</desc>
    <defs></defs>
    <g id="Desktop" stroke="none" stroke-width="1" fill="none" fill-rule="evenodd">
        <g id="Desktop-08-Company-Careers" transform="translate(-731.000000, -1078.000000)">
            <g id="diagram-401k" transform="translate(731.000000, 1078.000000)">
                <rect id="Rectangle-21" stroke="#FFFFFF" x="0.5" y="0.5" width="589" height="199"></rect>
                <g id="Group-11" transform="translate(86.000000, 33.000000)">
                    <polygon id="+" fill="#06002E" points="279.676737 53.3521127 275 53.3521127 275 50.7082495 279.676737 50.7082495 279.676737 46 282.323263 46 282.323263 50.7082495 287 50.7082495 287 53.3521127 282.323263 53.3521127 282.323263 58 279.676737 58"></polygon>
                    <polygon id="Polygon-Copy-32" stroke="#06002E" stroke-linecap="round" stroke-linejoin="round" points="195 42 234 64.5 234 109.5 195 132 156 109.5 156 64.5"></polygon>
                    <polygon id="Polygon-Copy-34" stroke="#06002E" stroke-linecap="round" stroke-linejoin="round" points="288 13 317 29.75 317 63.25 288 80 259 63.25 259 29.75"></polygon>
                    <circle id="Oval-11" stroke="#06002E" cx="280.5" cy="52.5" r="11.5"></circle>
                    <path d="M295.5,39.5 L289.5,44.5" id="Line-4" stroke="#06002E" stroke-linecap="square"></path>
                    <path d="M302,36.5899582 C302,37.033475 301.847279,37.3898173 301.541833,37.6589958 C301.236386,37.9281743 300.808768,38.0892605 300.258964,38.1422594 L300.258964,39 L299.713147,39 L299.713147,38.1589958 C299.06507,38.1450487 298.496682,38.0251057 298.007968,37.7991632 L298.007968,36.6945607 C298.239045,36.8145055 298.517263,36.9205016 298.842629,37.0125523 C299.167996,37.104603 299.458166,37.1589957 299.713147,37.1757322 L299.713147,35.8786611 L299.446215,35.7698745 C298.920316,35.5523002 298.54781,35.3159009 298.328685,35.0606695 C298.109561,34.8054381 298,34.4895416 298,34.1129707 C298,33.7085056 298.150729,33.375873 298.452191,33.1150628 C298.753654,32.8542525 299.173968,32.6959556 299.713147,32.6401674 L299.713147,32 L300.258964,32 L300.258964,32.623431 C300.867201,32.6513251 301.416996,32.7796362 301.908367,33.0083682 L301.533865,33.9874477 C301.11952,33.8089252 300.694557,33.7001397 300.258964,33.6610879 L300.258964,34.8953975 C300.776895,35.1046036 301.145417,35.2859128 301.364542,35.4393305 C301.583666,35.5927483 301.744355,35.7615054 301.846614,35.9456067 C301.948872,36.129708 302,36.3444897 302,36.5899582 Z M300.800797,36.6527197 C300.800797,36.5355643 300.755645,36.4365415 300.665339,36.3556485 C300.575033,36.2747555 300.439576,36.1910744 300.258964,36.1046025 L300.258964,37.1464435 C300.620188,37.082287 300.800797,36.917714 300.800797,36.6527197 Z M299.199203,34.1129707 C299.199203,34.2357049 299.239707,34.3368197 299.320717,34.416318 C299.401727,34.4958163 299.532536,34.5774054 299.713147,34.6610879 L299.713147,33.6778243 C299.370516,33.7308231 299.199203,33.8758705 299.199203,34.1129707 Z" id="$" fill="#06002E"></path>
                    <circle id="Oval-11-Copy" stroke="#06002E" cx="300" cy="35" r="6"></circle>
                    <g id="Group-9" transform="translate(172.000000, 71.000000)" stroke="#06002E" stroke-linecap="round" stroke-linejoin="round">
                        <polygon id="Stroke-1" stroke-width="2" points="30.7561817 0 45 8.31346864 14.0823759 26 0 17.6052398"></polygon>
                        <polyline id="Stroke-3" opacity="0.8" points="42.8525368 11 45 12.2583713 14.0823759 30 0 21.5787546 2.47591507 20.1565842"></polyline>
                        <polyline id="Stroke-5" opacity="0.6" points="42.8525368 14 45 15.2583713 14.0823759 33 0 24.5787546 2.47591507 23.1572872"></polyline>
                        <polyline id="Stroke-7" opacity="0.4" points="42.8525368 17 45 18.2583247 14.0823759 36 0 27.5783632 2.47591507 26.1569483"></polyline>
                        <path d="M28,12.4995426 C28,13.8817234 25.7605046,15 23.0004967,15 C20.2394954,15 18,13.8817234 18,12.4995426 C18,11.1182766 20.2394954,10 23.0004967,10 C25.7605046,10 28,11.1182766 28,12.4995426 Z" id="Stroke-9"></path>
                    </g>
                    <g id="Group-7" transform="translate(90.000000, 0.000000)">
                        <polygon id="Polygon-Copy-35" stroke="#06002E" stroke-linecap="round" stroke-linejoin="round" points="29 0 58 16.75 58 50.25 29 67 -3.55271368e-15 50.25 -2.13162821e-14 16.75"></polygon>
                        <polyline id="Path-21" stroke="#06002E" points="12 16 12 44 50 44"></polyline>
                        <polygon id="Triangle" fill="#06002E" transform="translate(41.949747, 24.949747) rotate(45.000000) translate(-41.949747, -24.949747) " points="41.9497475 22.4497475 46.4497475 27.4497475 37.4497475 27.4497475"></polygon>
                        <polyline id="Path-22" stroke="#06002E" stroke-width="2" stroke-linecap="round" points="17 40 23.7598906 33.5749017 25.9881987 35.8704163 32.6828888 29.581776 34.5673688 31.3608759 40 26"></polyline>
                        <path d="M10.625,24.5 L8.375,24.5" id="Line-3" stroke="#06002E" opacity="0.330389493"></path>
                        <path d="M10.625,33.5 L8.375,33.5" id="Line-3-Copy-3" stroke="#06002E" opacity="0.330389493"></path>
                        <path d="M10.625,42.5 L8.375,42.5" id="Line-3-Copy-6" stroke="#06002E" opacity="0.330389493"></path>
                        <path d="M10.625,18.5 L8.375,18.5" id="Line-3-Copy" stroke="#06002E" opacity="0.330389493"></path>
                        <path d="M10.625,27.5 L8.375,27.5" id="Line-3-Copy-4" stroke="#06002E" opacity="0.330389493"></path>
                        <path d="M10.625,36.5 L8.375,36.5" id="Line-3-Copy-7" stroke="#06002E" opacity="0.330389493"></path>
                        <path d="M10.625,21.5 L8.375,21.5" id="Line-3-Copy-2" stroke="#06002E" opacity="0.330389493"></path>
                        <path d="M10.625,30.5 L8.375,30.5" id="Line-3-Copy-5" stroke="#06002E" opacity="0.330389493"></path>
                        <path d="M10.625,39.5 L8.375,39.5" id="Line-3-Copy-8" stroke="#06002E" opacity="0.330389493"></path>
                        <path d="M42.625,46.5 L40.375,46.5" id="Line-3-Copy-9" stroke="#06002E" opacity="0.330389493" transform="translate(41.500000, 46.500000) rotate(-270.000000) translate(-41.500000, -46.500000) "></path>
                        <path d="M33.625,46.5 L31.375,46.5" id="Line-3-Copy-10" stroke="#06002E" opacity="0.330389493" transform="translate(32.500000, 46.500000) rotate(-270.000000) translate(-32.500000, -46.500000) "></path>
                        <path d="M24.625,46.5 L22.375,46.5" id="Line-3-Copy-18" stroke="#06002E" opacity="0.330389493" transform="translate(23.500000, 46.500000) rotate(-270.000000) translate(-23.500000, -46.500000) "></path>
                        <path d="M15.625,46.5 L13.375,46.5" id="Line-3-Copy-19" stroke="#06002E" opacity="0.330389493" transform="translate(14.500000, 46.500000) rotate(-270.000000) translate(-14.500000, -46.500000) "></path>
                        <path d="M48.625,46.5 L46.375,46.5" id="Line-3-Copy-12" stroke="#06002E" opacity="0.330389493" transform="translate(47.500000, 46.500000) rotate(-270.000000) translate(-47.500000, -46.500000) "></path>
                        <path d="M39.625,46.5 L37.375,46.5" id="Line-3-Copy-13" stroke="#06002E" opacity="0.330389493" transform="translate(38.500000, 46.500000) rotate(-270.000000) translate(-38.500000, -46.500000) "></path>
                        <path d="M30.625,46.5 L28.375,46.5" id="Line-3-Copy-14" stroke="#06002E" opacity="0.330389493" transform="translate(29.500000, 46.500000) rotate(-270.000000) translate(-29.500000, -46.500000) "></path>
                        <path d="M21.625,46.5 L19.375,46.5" id="Line-3-Copy-20" stroke="#06002E" opacity="0.330389493" transform="translate(20.500000, 46.500000) rotate(-270.000000) translate(-20.500000, -46.500000) "></path>
                        <path d="M45.625,46.5 L43.375,46.5" id="Line-3-Copy-15" stroke="#06002E" opacity="0.330389493" transform="translate(44.500000, 46.500000) rotate(-270.000000) translate(-44.500000, -46.500000) "></path>
                        <path d="M36.625,46.5 L34.375,46.5" id="Line-3-Copy-16" stroke="#06002E" opacity="0.330389493" transform="translate(35.500000, 46.500000) rotate(-270.000000) translate(-35.500000, -46.500000) "></path>
                        <path d="M27.625,46.5 L25.375,46.5" id="Line-3-Copy-17" stroke="#06002E" opacity="0.330389493" transform="translate(26.500000, 46.500000) rotate(-270.000000) translate(-26.500000, -46.500000) "></path>
                        <path d="M18.625,46.5 L16.375,46.5" id="Line-3-Copy-21" stroke="#06002E" opacity="0.330389493" transform="translate(17.500000, 46.500000) rotate(-270.000000) translate(-17.500000, -46.500000) "></path>
                    </g>
                    <polygon id="Polygon-Copy-50" stroke="#3A76FF" stroke-linecap="round" stroke-linejoin="round" points="285.330127 97 289.660254 99.5 289.660254 104.5 285.330127 107 281 104.5 281 99.5"></polygon>
                    <polygon id="Polygon-Copy-47" stroke="#FE006A" stroke-linecap="round" stroke-linejoin="round" points="209.330127 9 213.660254 11.5 213.660254 16.5 209.330127 19 205 16.5 205 11.5"></polygon>
                    <polygon id="Polygon-Copy-49" stroke="#00CD90" stroke-linecap="round" stroke-linejoin="round" points="4.33012702 49 8.66025404 51.5 8.66025404 56.5 4.33012702 59 -7.77156117e-16 56.5 -3.55271368e-15 51.5"></polygon>
                    <polygon id="Polygon-Copy-51" stroke="#00CD90" stroke-linecap="round" stroke-linejoin="round" points="367.330127 75 371.660254 77.5 371.660254 82.5 367.330127 85 363 82.5 363 77.5"></polygon>
                    <polygon id="Polygon-Copy-48" stroke="#00CD90" stroke-linecap="round" stroke-linejoin="round" points="77.330127 102 81.660254 104.5 81.660254 109.5 77.330127 112 73 109.5 73 104.5"></polygon>
                </g>
            </g>
        </g>
    </g>
</svg>