<?xml version="1.0" encoding="UTF-8"?>
<svg width="19px" height="16px" viewBox="0 0 19 16" version="1.1" xmlns="http://www.w3.org/2000/svg" xmlns:xlink="http://www.w3.org/1999/xlink">
    <!-- Generator: Sketch 48.2 (47327) - http://www.bohemiancoding.com/sketch -->
    <title>icon-medium</title>
    <desc>Created with Sketch.</desc>
    <defs></defs>
    <g id="Mobile-02-Menu" stroke="none" stroke-width="1" fill="none" fill-rule="evenodd" transform="translate(-25.000000, -793.000000)">
        <path d="M27.2530345,796.256677 C27.2766406,796.009829 27.1876977,795.765848 27.0135387,795.59971 L25.2394958,793.337868 L25.2394958,793 L30.7478992,793 L35.0056022,802.882653 L38.7488329,793 L44,793 L44,793.337868 L42.4831933,794.877047 C42.3524279,794.982541 42.2875616,795.155929 42.3146592,795.327538 L42.3146592,806.636747 C42.2875616,806.808357 42.3524279,806.981744 42.4831933,807.087239 L43.9645192,808.626417 L43.9645192,808.964286 L36.5135388,808.964286 L36.5135388,808.626417 L38.048086,807.049698 C38.1988795,806.890149 38.1988795,806.843223 38.1988795,806.599206 L38.1988795,797.457987 L33.9323063,808.926745 L33.3557423,808.926745 L28.388422,797.457987 L28.388422,805.144495 C28.3470063,805.467657 28.4484159,805.793011 28.6633987,806.026707 L30.659197,808.588876 L30.659197,808.926745 L25,808.926745 L25,808.588876 L26.9957983,806.026707 C27.2092159,805.792624 27.3047122,805.465112 27.2530345,805.144495 L27.2530345,796.256677 Z" id="icon-medium" fill="#FFFFFF" fill-rule="nonzero"></path>
    </g>
</svg>