<?xml version="1.0" encoding="UTF-8"?>
<svg width="533px" height="297px" viewBox="0 0 533 297" version="1.1" xmlns="http://www.w3.org/2000/svg" xmlns:xlink="http://www.w3.org/1999/xlink">
    <!-- Generator: Sketch 49 (51002) - http://www.bohemiancoding.com/sketch -->
    <title>icon-quote-1</title>
    <desc>Created with Sketch.</desc>
    <defs></defs>
    <g id="Desktop" stroke="none" stroke-width="1" fill="none" fill-rule="evenodd">
        <g id="Desktop-08-Company-Careers" transform="translate(-787.000000, -336.000000)">
            <g id="icon-quote-1" transform="translate(787.000000, 337.000000)">
                <path d="M18.4570312,78.4960938 L17.9296875,77.7226562 C20.2734492,68.5585479 22.3476472,61.9843949 24.1523438,58 L33.9257812,58 C32.3554609,65.3125366 31.2070349,72.1444995 30.4804688,78.4960938 L18.4570312,78.4960938 Z M0.52734375,78.4960938 L0,77.7226562 C2.34376172,68.5585479 4.41795973,61.9843949 6.22265625,58 L15.9960938,58 C14.4257734,65.3125366 13.2773474,72.1444995 12.5507812,78.4960938 L0.52734375,78.4960938 Z" id="quoute-left" fill="#00E29F"></path>
                <path d="M514.46875,219 L514.996094,219.773438 C512.839833,228.351605 510.765635,234.925758 508.773438,239.496094 L499,239.496094 C500.593758,232.066369 501.742184,225.234406 502.445312,219 L514.46875,219 Z M532.398438,219 L532.890625,219.773438 C530.710927,228.468793 528.648447,235.042946 526.703125,239.496094 L516.929688,239.496094 C518.523445,232.066369 519.671871,225.234406 520.375,219 L532.398438,219 Z" id="quote-right" fill="#00E29F"></path>
                <path d="M17,95 L17,292 C17,293.656854 18.3431458,295 20,295 L514,295 C515.656854,295 517,293.656854 517,292 L517,254.350585" id="Path-5" stroke="#FFFFFF" stroke-width="2"></path>
                <path d="M17,0 L17,197 C17,198.656854 18.3431458,200 20,200 L514,200 C515.656854,200 517,198.656854 517,197 L517,159.350585" id="Path-5-Copy" stroke="#FFFFFF" stroke-width="2" transform="translate(267.000000, 100.000000) rotate(-180.000000) translate(-267.000000, -100.000000) "></path>
            </g>
        </g>
    </g>
</svg>