<?xml version="1.0" encoding="UTF-8"?>
<svg width="18px" height="20px" viewBox="0 0 18 20" version="1.1" xmlns="http://www.w3.org/2000/svg" xmlns:xlink="http://www.w3.org/1999/xlink">
    <!-- Generator: Sketch 48.2 (47327) - http://www.bohemiancoding.com/sketch -->
    <title>icon-linkedin</title>
    <desc>Created with Sketch.</desc>
    <defs></defs>
    <g id="Mobile-02-Menu" stroke="none" stroke-width="1" fill="none" fill-rule="evenodd" transform="translate(-26.000000, -731.000000)">
        <g id="icon-linkedin" transform="translate(26.000000, 731.000000)" fill="#FFFFFF">
            <polygon id="Fill-3-Copy" points="3.82145199 6.38571429 0 6.38571429 0 19.1571429 3.82145199 19.1571429"></polygon>
            <path d="M4.29864169,2.1456 C4.27391101,0.928057143 3.46847775,0 2.16168618,0 C0.854332553,0 0,0.928057143 0,2.1456 C0,3.33820816 0.829039813,4.29302449 2.11166276,4.29302449 L2.13639344,4.29302449 C3.46847775,4.29302449 4.29864169,3.33820816 4.29864169,2.1456" id="Fill-5-Copy"></path>
            <path d="M17.6661358,11.9777755 C17.6661358,8.16215918 15.7809836,6.38571429 13.2663232,6.38571429 C11.2372834,6.38571429 10.328993,7.59170204 9.82201405,8.43765714 L9.82201405,6.38571429 L6,6.38571429 C6.05058548,7.5509551 6,19.1011918 6,19.1011918 L9.82201405,19.1011918 L9.82201405,12.1632653 C9.82201405,11.7916776 9.84674473,11.4213061 9.94791569,11.1555388 C10.2238876,10.4135796 10.8528337,9.64607755 11.9083841,9.64607755 C13.2916159,9.64607755 13.8446838,10.7851673 13.8446838,12.4545755 L13.8446838,19.1005837 L17.6655738,19.1005837 L17.6661358,11.9777755 Z" id="Fill-6-Copy"></path>
        </g>
    </g>
</svg>