<?xml version="1.0" encoding="UTF-8"?>
<svg width="25px" height="25px" viewBox="0 0 25 25" version="1.1" xmlns="http://www.w3.org/2000/svg" xmlns:xlink="http://www.w3.org/1999/xlink">
    <!-- Generator: Sketch 48.2 (47327) - http://www.bohemiancoding.com/sketch -->
    <title>Shape</title>
    <desc>Created with Sketch.</desc>
    <defs></defs>
    <g id="Desktop-11-Contact-Success" stroke="none" stroke-width="1" fill="none" fill-rule="evenodd" transform="translate(-175.000000, -889.000000)">
        <g id="Group" transform="translate(175.000000, 809.000000)" fill="#00E29F" fill-rule="nonzero">
            <path d="M23.58375,81.674375 L21.9090625,80 L15.7475,87.531875 L16.736875,88.520625 L16.7371875,88.520625 C17.6815625,89.4646875 18.92125,89.9365625 20.1590625,89.9375 C18.3103125,94.404375 14.7575,98.1625 9.939375,100.16 L9.9378125,100.16 C9.9365625,98.9209375 9.4646875,97.680625 8.5203125,96.736875 L8.520625,96.735625 L7.531875,95.7465625 L0,101.908437 L1.6728125,103.581563 L1.6740625,103.582813 C2.5515625,104.457813 3.760625,105 5.0965625,105 C10.1890625,104.9975 15.2846875,103.056875 19.1715625,99.1696875 C23.0578125,95.28375 24.9978125,90.1890625 25,85.09625 C25,83.760625 24.458125,82.551875 23.58375,81.674375 Z" id="Shape"></path>
        </g>
    </g>
</svg>