<?xml version="1.0" encoding="UTF-8"?>
<svg width="410px" height="130px" viewBox="0 0 410 130" version="1.1" xmlns="http://www.w3.org/2000/svg" xmlns:xlink="http://www.w3.org/1999/xlink">
    <!-- Generator: Sketch 49 (51002) - http://www.bohemiancoding.com/sketch -->
    <title>logo-medium</title>
    <desc>Created with Sketch.</desc>
    <defs></defs>
    <g id="Page-1" stroke="none" stroke-width="1" fill="none" fill-rule="evenodd">
        <g id="logo-medium">
            <path d="M206.606356,88.0798086 C206.606356,89.1709889 206.606356,89.4189844 207.347752,90.0885723 L211.499564,94.1556992 L211.499564,94.3292961 L193.088251,94.3292961 L193.088251,86.5174366 C191.23527,91.6660584 186.334517,95.0707463 180.879943,94.998884 C171.414798,94.998884 164.544537,87.559018 164.544537,73.8696643 C164.544537,61.0482951 171.958488,52.4924491 182.362734,52.4924491 C186.974627,52.2011181 191.266267,54.8666599 193.063537,59.1387295 L193.063537,41.9030398 C193.200314,41.1048825 192.874796,40.2978523 192.22329,39.8198772 L188.269182,36.000746 L188.269182,35.8271491 L206.606356,33.6695879 L206.606356,88.0798086 Z M193.088251,85.5998532 L193.088251,59.8827161 C191.753987,58.2195948 189.729302,57.2677782 187.601926,57.3035625 C183.128842,57.3035625 178.804037,61.3706893 178.804037,73.4480719 C178.804037,84.7566684 182.535726,88.7493965 187.181803,88.7493965 C189.537491,88.7010191 191.730013,87.5318832 193.088251,85.5998532 Z M218.814664,94.3292961 L218.814664,59.609921 C218.932474,58.8345923 218.653872,58.0517819 218.073269,57.5267585 L213.995595,53.3108344 L213.995595,53.1372375 L232.406908,53.1372375 L232.406908,88.3526037 C232.406908,89.443784 232.406908,89.6917795 233.148303,90.3613675 L237.201264,94.1804988 L237.201264,94.3540956 L218.814664,94.3292961 Z M218.147408,40.4398661 C218.147408,36.3309415 221.466747,33 225.561359,33 C229.655972,33 232.975311,36.3309415 232.975311,40.4398661 C232.975311,44.5487907 229.655972,47.8797322 225.561359,47.8797322 C221.466747,47.8797322 218.147408,44.5487907 218.147408,40.4398661 Z M282.080386,88.0054099 C282.080386,89.0965902 282.080386,89.4189844 282.821781,90.0885723 L286.973594,94.1556992 L286.973594,94.3292961 L268.463428,94.3292961 L268.463428,85.4262563 C266.777865,91.0556346 261.642731,94.933003 255.78557,94.998884 C247.580796,94.998884 243.181852,88.997392 243.181852,77.6391964 C243.181852,72.1584952 243.181852,66.1570032 243.354844,59.4115246 C243.490426,58.6564372 243.206461,57.8870551 242.613449,57.4027608 L238.535776,53.3108344 L238.535776,53.1372375 L256.79881,53.1372375 C256.79881,53.3852331 256.79881,74.6880496 256.79881,75.77923 C256.79881,83.219096 257.886189,88.1790068 262.532266,88.1790068 C265.027468,88.0224909 267.276022,86.614564 268.512854,84.4342742 L268.512854,59.6347206 C268.630664,58.8593918 268.352063,58.0765814 267.771459,57.5515581 L263.669072,53.3108344 L263.669072,53.1372375 L282.080386,53.1372375 L282.080386,88.0054099 Z M344.752992,94.3292961 C344.752992,92.9901201 345.000123,75.9280273 345.000123,72.0096978 C345.000123,64.5698317 343.838604,59.4363241 338.624125,59.4363241 C336.000401,59.5175242 333.570512,60.8425322 332.075134,63.0074599 C332.598106,65.3260084 332.846953,67.6983283 332.816529,70.0753326 C332.816529,75.2336398 332.643537,81.8055215 332.569397,88.3774032 C332.433816,89.1324906 332.717779,89.9018727 333.310792,90.386167 L337.462606,94.2052983 L337.462606,94.3788952 L318.8783,94.3788952 C318.8783,93.1389174 319.125431,75.9776264 319.125431,72.059297 C319.125431,64.4954331 317.963913,59.4859233 312.823573,59.4859233 C310.289579,59.5771504 307.977791,60.961588 306.694705,63.1562572 L306.694705,88.4518019 C306.694705,89.5429822 306.694705,89.7909777 307.436101,90.4605657 L311.489061,94.279697 L311.489061,94.4532938 L293.102461,94.4532938 L293.102461,59.7339188 C293.220271,58.95859 292.94167,58.1757796 292.361066,57.6507563 L288.283392,53.3108344 L288.283392,53.1372375 L306.694705,53.1372375 L306.694705,61.9658786 C308.401705,56.1368989 313.842223,52.2211658 319.89154,52.4676495 C326.020406,52.4676495 330.172219,55.8899879 331.926855,62.387471 C333.875595,56.3950192 339.485416,52.373998 345.766232,52.4676495 C353.971005,52.4676495 358.617081,58.5435402 358.617081,70.0257335 C358.617081,75.5064349 358.44409,81.7559224 358.36995,88.3278041 C358.225861,89.1056172 358.556049,89.8949887 359.210197,90.3365679 L363.263158,94.1556992 L363.263158,94.3292961 L344.752992,94.3292961 Z M113.462408,88.9229934 L118.92402,94.1556992 L118.92402,94.3292961 L91.2205529,94.3292961 L91.2205529,94.1556992 L96.7810168,88.9229934 C97.3740298,88.4386991 97.6579936,87.6693169 97.522412,86.9142295 L97.522412,53.4596318 C97.522412,52.0460572 97.522412,50.1364915 97.7695437,48.499721 L79.0863852,94.998884 L78.8639666,94.998884 L59.5135524,52.219654 C59.0934285,51.1532733 58.9698626,51.0788746 58.6980177,50.3596876 L58.6980177,78.4079827 C58.4663528,80.2852177 58.7840649,82.1895361 59.6124051,83.8886839 L67.3970545,94.1556992 L67.3970545,94.3292961 L46.7368421,94.3292961 L46.7368421,94.1556992 L54.5214915,83.8638844 C55.3437147,82.1716298 55.6612407,80.2770378 55.4358789,78.4079827 L55.4358789,47.4085407 C55.5624549,45.8821995 55.1027066,44.3650503 54.1507939,43.1678169 L48.6397564,36.000746 L48.6397564,35.8271491 L68.4102945,35.8271491 L84.9681202,72.059297 L99.5488922,35.8271491 L118.899306,35.8271491 L118.899306,36.000746 L113.462408,42.0766366 C112.810902,42.5546116 112.485384,43.3616419 112.62216,44.1597992 L112.62216,86.9142295 C112.478072,87.6920426 112.808259,88.4814141 113.462408,88.9229934 Z M135.13586,72.1584952 L135.13586,72.332092 C135.13586,82.9463009 140.597472,87.2118242 146.998183,87.2118242 C152.34289,87.3949276 157.289262,84.3875329 159.601902,79.5487621 L159.774894,79.5487621 C157.550708,90.0389732 151.075857,94.998884 141.388294,94.998884 C130.934621,94.998884 121.074066,88.6749978 121.074066,74.0184616 C121.074066,58.6179388 130.959335,52.4676495 141.882557,52.4676495 C150.680447,52.4676495 160.046738,56.6339746 160.046738,70.0257335 C160.046738,70.2737291 160.046738,71.166513 160.046738,72.1584952 L135.13586,72.1584952 Z M135.13586,70.0257335 L147.319455,70.0257335 C147.319455,68.9345532 147.319455,68.1905665 147.319455,67.8681723 C147.319455,56.9563688 145.070556,54.054821 141.684852,54.054821 C137.582465,54.054821 135.086434,58.3947429 135.086434,70.0257335 L135.13586,70.0257335 Z" id="Shape" fill="#FFFFFF" fill-rule="nonzero"></path>
            <rect id="Rectangle" stroke="#FFFFFF" stroke-width="3" x="1.5" y="1.5" width="407" height="127"></rect>
        </g>
    </g>
</svg>