<?xml version="1.0" encoding="UTF-8"?>
<svg width="150px" height="38px" viewBox="0 0 150 38" version="1.1" xmlns="http://www.w3.org/2000/svg" xmlns:xlink="http://www.w3.org/1999/xlink">
    <!-- Generator: Sketch 48.2 (47327) - http://www.bohemiancoding.com/sketch -->
    <title>Group</title>
    <desc>Created with Sketch.</desc>
    <defs></defs>
    <g id="Nav-Company" stroke="none" stroke-width="1" fill="none" fill-rule="evenodd" transform="translate(1.000000, 0.000000)">
        <g id="Group" transform="translate(-1.000000, 0.000000)" fill="#FFFFFF">
            <path d="M26.3028575,7.46264506 C26.1073138,7.57504639 25.7878167,7.57628156 25.5926822,7.46470369 L21.7509443,5.27061338 C21.5554007,5.15862378 21.2346763,5.15862378 21.0391326,5.27061338 L17.1990312,7.46470369 C17.0038966,7.57628156 16.6831722,7.57628156 16.4880376,7.46470369 L12.6462998,5.27061338 C12.4511653,5.15862378 12.4511653,4.97622896 12.6467089,4.86423936 L21.02686,0.0836834035 C21.2224037,-0.0278944678 21.542719,-0.0278944678 21.7382626,0.0836834035 L30.0942776,4.85806346 C30.2894122,4.96964133 30.2902304,5.15409479 30.0950958,5.26649611 L26.3028575,7.46264506 Z" id="logo-upper-copy"></path>
            <polygon id="Fill-5" points="70.4626056 12.142697 65.2506338 25.5469314 61.7964085 25.5469314 56.8242254 12.142697 60.5583803 12.142697 63.7928873 21.9290214 67.0279225 12.1623653"></polygon>
            <path d="M78.748257,20.2616783 L77.05125,15.1973485 L75.3737852,20.2616783 L78.748257,20.2616783 Z M79.5479049,22.6527097 L74.5757218,22.6527097 L73.6170951,25.5466124 L70.5616373,25.5466124 L75.5935035,12.1429096 L79.1280106,12.1429096 L83.8403345,25.5466124 L80.5260739,25.5466124 L79.5479049,22.6527097 Z" id="Fill-7"></path>
            <polygon id="Fill-9" points="86.5160387 12.142697 89.7510739 12.142697 89.7510739 22.9943008 95.5413908 22.9943008 95.5413908 25.5469314 86.5160387 25.5469314"></polygon>
            <polygon id="Fill-11" points="98.5969014 12.142697 107.721021 12.142697 107.721021 14.6543962 101.831937 14.6543962 101.831937 17.5684989 106.943556 17.5684989 106.943556 20.1009296 101.831937 20.1009296 101.831937 23.0347006 107.721021 23.0347006 107.721021 25.5469314 98.5969014 25.5469314"></polygon>
            <polygon id="Fill-13" points="123.056144 12.142697 123.056144 25.5469314 120.620229 25.5469314 114.410546 17.3877628 114.410546 25.5469314 111.43537 25.5469314 111.43537 12.142697 114.190299 12.142697 120.080968 20.1205979 120.080968 12.142697"></polygon>
            <path d="M126.231338,18.854861 C126.231338,14.1791136 128.414789,11.8412399 132.781162,11.8412399 C134.125352,11.8412399 135.536092,12.1697542 137.013908,12.8257197 L137.013908,15.6590227 C135.735739,14.8026529 134.471303,14.3726075 133.220599,14.3726075 C131.995246,14.3726075 131.080458,14.7186638 130.474648,15.4081186 C129.869366,16.098105 129.565669,17.2473735 129.565669,18.854861 C129.565669,20.4618169 129.875176,21.6009855 130.49419,22.2713035 C131.113204,22.94109 132.068662,23.2759832 133.360035,23.2759832 C133.89243,23.2759832 134.471303,23.1760468 135.097183,22.9745793 C135.722535,22.7731118 136.362148,22.4584184 137.013908,22.0299677 L137.013908,24.8638024 C136.46831,25.1444748 135.802817,25.3730527 135.017958,25.5468782 C134.231514,25.7207038 133.485739,25.8084139 132.781162,25.8084139 C128.414789,25.8084139 126.231338,23.4907401 126.231338,18.854861" id="Fill-15"></path>
            <polygon id="Fill-17" points="140.468715 12.142697 149.593363 12.142697 149.593363 14.6543962 143.70375 14.6543962 143.70375 17.5684989 148.81537 17.5684989 148.81537 20.1009296 143.70375 20.1009296 143.70375 23.0347006 149.593363 23.0347006 149.593363 25.5469314 140.468715 25.5469314"></polygon>
            <path d="M0,12.9105403 C0,12.6187048 0.206514085,12.4975054 0.458978873,12.641031 L21.0887324,24.396315 C21.3411972,24.5409038 21.7547535,24.5409038 22.0077465,24.396315 L42.6380282,12.6415626 C42.890493,12.4975054 43.0975352,12.6187048 43.0975352,12.9116035 L43.0975352,25.2760742 C43.0975352,25.5684413 42.8910211,25.9256607 42.6385563,26.0702496 L22.0230634,37.8584913 C21.7705986,38.0030801 21.3575704,38.0030801 21.1051056,37.8590229 L0.477464789,26.0792864 C0.225,25.9352291 0.0174295775,25.5780097 0.0174295775,25.285111 L0,12.9105403 Z" id="logo-lower-copy"></path>
        </g>
    </g>
</svg>