<?xml version="1.0" encoding="UTF-8"?>
<svg width="93px" height="81px" viewBox="0 0 93 81" version="1.1" xmlns="http://www.w3.org/2000/svg" xmlns:xlink="http://www.w3.org/1999/xlink">
    <!-- Generator: Sketch 48.2 (47327) - http://www.bohemiancoding.com/sketch -->
    <title>Group 11</title>
    <desc>Created with Sketch.</desc>
    <defs></defs>
    <g id="Desktop-10-Contact-" stroke="none" stroke-width="1" fill="none" fill-rule="evenodd" transform="translate(-675.000000, -1226.000000)">
        <g id="Group-2" transform="translate(121.000000, 1119.000000)" fill="#FFFFFF">
            <g id="Group" transform="translate(428.000000, 107.000000)">
                <g id="Group-11" transform="translate(126.000000, 0.000000)">
                    <path d="M57.4759137,15.4227998 C57.0526647,15.6550959 56.3611218,15.6576486 55.9387583,15.4270543 L47.6234201,10.892601 C47.2001711,10.6611558 46.5059719,10.6611558 46.0827229,10.892601 L37.7709266,15.4270543 C37.348563,15.6576486 36.6543638,15.6576486 36.2320002,15.4270543 L27.9166621,10.892601 C27.4942985,10.6611558 27.4942985,10.2842065 27.9175475,10.0527613 L46.0561591,0.1729457 C46.4794081,-0.0576485668 47.1727219,-0.0576485668 47.5959709,0.1729457 L65.6823405,10.0399978 C66.104704,10.2705921 66.106475,10.6517959 65.6841114,10.884092 L57.4759137,15.4227998 Z" id="logo-upper"></path>
                    <path d="M0,27.1095259 C0,26.4818573 0.442760852,26.2211861 0.984038824,26.5298756 L45.2136964,51.8126908 C45.7549744,52.123667 46.6416285,52.123667 47.1840388,51.8126908 L91.4148288,26.5310189 C91.9561068,26.2211861 92.4,26.4818573 92.4,27.1118125 L92.4,53.7048433 C92.4,54.3336553 91.9572391,55.1019492 91.4159612,55.4129253 L47.2168779,80.7666248 C46.6755999,81.0776009 45.7900782,81.0776009 45.2488002,80.7677681 L1.02367215,55.4323613 C0.482394176,55.1225285 0.037368563,54.3542346 0.037368563,53.7242793 L0,27.1095259 Z" id="logo-lower"></path>
                </g>
            </g>
        </g>
    </g>
</svg>