<?xml version="1.0" encoding="UTF-8"?>
<svg width="533px" height="297px" viewBox="0 0 533 297" version="1.1" xmlns="http://www.w3.org/2000/svg" xmlns:xlink="http://www.w3.org/1999/xlink">
    <!-- Generator: Sketch 49 (51002) - http://www.bohemiancoding.com/sketch -->
    <title>quote-box-1</title>
    <desc>Created with Sketch.</desc>
    <defs></defs>
    <g id="Desktop" stroke="none" stroke-width="1" fill="none" fill-rule="evenodd">
        <g id="Desktop-08-Company-Careers" transform="translate(-787.000000, -336.000000)">
            <g id="quote-box-1" transform="translate(787.000000, 336.000000)">
                <path d="M18,135.729746 L517,295.437971 L517,97 C517,94.790861 515.209139,93 513,93 L22,93 C19.790861,93 18,94.790861 18,97 L18,135.729746 Z" id="Rectangle-Copy" stroke="#FFFFFF" stroke-width="2" transform="translate(267.500000, 194.403998) scale(-1, -1) translate(-267.500000, -194.403998) "></path>
                <path d="M18,43.729746 L517,203.437971 L517,5 C517,2.790861 515.209139,1 513,1 L22,1 C19.790861,1 18,2.790861 18,5 L18,43.729746 Z" id="Rectangle-Copy-2" stroke="#FFFFFF" stroke-width="2" transform="translate(267.500000, 102.403998) scale(-1, -1) rotate(-180.000000) translate(-267.500000, -102.403998) "></path>
                <path d="M18.4570312,79.4960938 L17.9296875,78.7226562 C20.2734492,69.5585479 22.3476472,62.9843949 24.1523438,59 L33.9257812,59 C32.3554609,66.3125366 31.2070349,73.1444995 30.4804688,79.4960938 L18.4570312,79.4960938 Z M0.52734375,79.4960938 L0,78.7226562 C2.34376172,69.5585479 4.41795973,62.9843949 6.22265625,59 L15.9960938,59 C14.4257734,66.3125366 13.2773474,73.1444995 12.5507812,79.4960938 L0.52734375,79.4960938 Z" id="quoute-left" fill="#00E29F"></path>
                <path d="M514.46875,220 L514.996094,220.773438 C512.839833,229.351605 510.765635,235.925758 508.773438,240.496094 L499,240.496094 C500.593758,233.066369 501.742184,226.234406 502.445312,220 L514.46875,220 Z M532.398438,220 L532.890625,220.773438 C530.710927,229.468793 528.648447,236.042946 526.703125,240.496094 L516.929688,240.496094 C518.523445,233.066369 519.671871,226.234406 520.375,220 L532.398438,220 Z" id="quote-right" fill="#00E29F"></path>
            </g>
        </g>
    </g>
</svg>